<svg width="620" height="113" viewBox="0 0 620 113" fill="none" xmlns="http://www.w3.org/2000/svg">
<path d="M517.177 102.68V56.1C517.177 21.76 539.107 0 571.747 0H609.487C615.267 0 619.177 3.91 619.177 9.85999C619.177 15.64 615.267 19.55 609.487 19.55H571.747C549.647 19.55 536.557 33.66 536.557 56.1V102.68C536.557 108.46 532.477 112.2 526.697 112.2C520.917 112.2 517.177 108.46 517.177 102.68ZM595.037 68.51H554.577C548.797 68.51 545.057 64.43 545.057 58.65C545.057 52.87 548.797 49.13 554.577 49.13H595.037C600.817 49.13 604.557 53.21 604.557 58.99C604.557 64.77 600.817 68.51 595.037 68.51Z" fill="white"/>
<path d="M495.562 112.2H451.022C418.382 112.2 396.112 90.44 396.112 56.1C396.112 21.76 418.382 0 451.022 0H493.862C499.642 0 503.552 3.91 503.552 9.85999C503.552 15.64 499.642 19.55 493.862 19.55H451.022C428.922 19.55 415.832 33.66 415.832 56.1C415.832 78.54 428.922 92.65 451.022 92.65H495.562C501.342 92.65 505.252 96.56 505.252 102.51C505.252 108.29 501.342 112.2 495.562 112.2ZM472.612 63.41H433.852C428.072 63.41 424.332 59.33 424.332 53.55C424.332 47.77 428.072 44.03 433.852 44.03H472.612C478.392 44.03 482.132 48.11 482.132 53.89C482.132 59.67 478.392 63.41 472.612 63.41Z" fill="white"/>
<path d="M270.644 102.68V9.52C270.644 3.74 274.724 0 280.504 0C286.284 0 290.024 3.74 290.024 9.52V102.68C290.024 108.46 285.944 112.2 280.164 112.2C274.384 112.2 270.644 108.46 270.644 102.68ZM364.824 102.68V70.38C364.824 66.3 362.104 63.58 358.024 63.58H309.744C303.964 63.58 300.224 59.5 300.224 53.72C300.224 47.94 303.964 44.2 309.744 44.2H358.024C362.104 44.2 364.824 41.48 364.824 37.4V9.52C364.824 3.74 368.904 0 374.684 0C380.464 0 384.204 3.74 384.204 9.52V102.68C384.204 108.46 380.124 112.2 374.344 112.2C368.564 112.2 364.824 108.46 364.824 102.68Z" fill="white"/>
<path d="M248.989 112.2H206.149C173.509 112.2 151.239 90.44 151.239 56.1C151.239 21.76 173.509 0 206.149 0H247.289C253.069 0 256.979 3.91 256.979 9.85999C256.979 15.64 253.069 19.55 247.289 19.55H206.149C184.049 19.55 170.959 33.66 170.959 56.1C170.959 78.54 184.049 92.65 206.149 92.65H248.989C254.769 92.65 258.679 96.56 258.679 102.51C258.679 108.29 254.769 112.2 248.989 112.2Z" fill="white"/>
<path d="M119.902 102.68V9.52C119.902 3.74 123.982 0 129.762 0C135.542 0 139.282 3.74 139.282 9.52V102.68C139.282 108.46 135.202 112.2 129.422 112.2C123.642 112.2 119.902 108.46 119.902 102.68Z" fill="white"/>
<path d="M98.2465 112.2H55.4065C22.7665 112.2 0.49646 90.44 0.49646 56.1C0.49646 21.76 22.7665 0 55.4065 0H96.5465C102.326 0 106.236 3.91 106.236 9.85999C106.236 15.64 102.326 19.55 96.5465 19.55H55.4065C33.3065 19.55 20.2165 33.66 20.2165 56.1C20.2165 78.54 33.3065 92.65 55.4065 92.65H98.2465C104.026 92.65 107.936 96.56 107.936 102.51C107.936 108.29 104.026 112.2 98.2465 112.2Z" fill="white"/>
</svg>
