<svg width="151" height="31" viewBox="0 0 151 31" fill="none" xmlns="http://www.w3.org/2000/svg">
<path d="M50.7785 26.6858C44.9738 26.6858 41.0133 22.8322 41.0133 16.7508C41.0133 10.6693 44.9738 6.81567 50.7785 6.81567H58.0948C59.1227 6.81567 59.8181 7.50812 59.8181 8.56184C59.8181 9.61556 59.1227 10.2779 58.0948 10.2779H50.7785C46.8482 10.2779 44.5203 12.7767 44.5203 16.7508C44.5203 20.7248 46.8482 23.2236 50.7785 23.2236H58.3971C59.4251 23.2236 60.1204 23.9161 60.1204 24.9698C60.1204 26.0235 59.4251 26.6858 58.3971 26.6858H50.7785Z" fill="white"/>
<path d="M62.2365 8.50163C62.2365 7.47801 62.962 6.81567 63.99 6.81567C65.0179 6.81567 65.683 7.47801 65.683 8.50163V24.9999C65.683 26.0235 64.9574 26.6858 63.9295 26.6858C62.9016 26.6858 62.2365 26.0235 62.2365 24.9999V8.50163Z" fill="white"/>
<path d="M77.5646 26.6858C71.7599 26.6858 67.7994 22.8322 67.7994 16.7508C67.7994 10.6693 71.7599 6.81567 77.5646 6.81567H84.8809C85.9089 6.81567 86.6042 7.50812 86.6042 8.56184C86.6042 9.61556 85.9089 10.2779 84.8809 10.2779H77.5646C73.6344 10.2779 71.3064 12.7767 71.3064 16.7508C71.3064 20.7248 73.6344 23.2236 77.5646 23.2236H85.1833C86.2112 23.2236 86.9065 23.9161 86.9065 24.9698C86.9065 26.0235 86.2112 26.6858 85.1833 26.6858H77.5646Z" fill="white"/>
<path d="M89.0229 8.50163C89.0229 7.47801 89.7485 6.81567 90.7764 6.81567C91.8044 6.81567 92.4695 7.47801 92.4695 8.50163V24.9999C92.4695 26.0235 91.7439 26.6858 90.716 26.6858C89.6881 26.6858 89.0229 26.0235 89.0229 24.9999V8.50163ZM105.772 19.2797C105.772 18.5571 105.288 18.0754 104.563 18.0754H95.9765C94.9486 18.0754 94.2835 17.3529 94.2835 16.3293C94.2835 15.3057 94.9486 14.6433 95.9765 14.6433H104.563C105.288 14.6433 105.772 14.1616 105.772 13.4391V8.50163C105.772 7.47801 106.497 6.81567 107.525 6.81567C108.553 6.81567 109.218 7.47801 109.218 8.50163V24.9999C109.218 26.0235 108.493 26.6858 107.465 26.6858C106.437 26.6858 105.772 26.0235 105.772 24.9999V19.2797Z" fill="white"/>
<path d="M121.1 26.6858C115.295 26.6858 111.335 22.8322 111.335 16.7508C111.335 10.6693 115.295 6.81567 121.1 6.81567H128.719C129.747 6.81567 130.442 7.50812 130.442 8.56184C130.442 9.61556 129.747 10.2779 128.719 10.2779H121.1C117.17 10.2779 114.842 12.7767 114.842 16.7508C114.842 20.7248 117.17 23.2236 121.1 23.2236H129.021C130.049 23.2236 130.744 23.9161 130.744 24.9698C130.744 26.0235 130.049 26.6858 129.021 26.6858H121.1ZM118.047 18.0453C117.019 18.0453 116.353 17.3228 116.353 16.2992C116.353 15.2755 117.019 14.6132 118.047 14.6132H124.94C125.967 14.6132 126.633 15.3358 126.633 16.3594C126.633 17.383 125.967 18.0453 124.94 18.0453H118.047Z" fill="white"/>
<path d="M132.86 16.7508C132.86 10.6693 136.76 6.81567 142.565 6.81567H149.277C150.305 6.81567 151 7.50812 151 8.56184C151 9.61556 150.305 10.2779 149.277 10.2779H142.565C138.635 10.2779 136.307 12.7767 136.307 16.7508V24.9999C136.307 26.0235 135.581 26.6858 134.553 26.6858C133.525 26.6858 132.86 26.0235 132.86 24.9999V16.7508ZM139.512 18.9485C138.484 18.9485 137.819 18.226 137.819 17.2024C137.819 16.1787 138.484 15.5164 139.512 15.5164H146.707C147.735 15.5164 148.4 16.239 148.4 17.2626C148.4 18.2862 147.735 18.9485 146.707 18.9485H139.512Z" fill="white"/>
<path d="M34.3719 6.72773C34.0041 6.05535 33.5254 5.44319 32.946 4.92637C32.0138 4.09593 30.8221 3.54398 29.5775 3.34829C28.9653 3.25296 28.338 3.24292 27.7258 3.33073C27.4537 3.36836 27.1337 3.52893 26.8742 3.54148C26.5417 3.55904 26.2141 3.29561 25.9546 3.11999C23.9215 1.75015 21.455 1 18.986 1C16.5145 1.00251 14.0505 1.75266 12.0173 3.125C11.7251 3.3232 11.4026 3.67695 11.0801 3.80741C10.6392 3.98303 10.0018 3.64183 9.56344 3.55151C8.08959 3.24794 6.62078 3.28055 5.20488 3.82749C3.3884 4.52997 1.8818 6.02274 1.2973 7.84668C0.748068 9.5502 1.01008 11.4243 1.67269 13.0877C2.23703 14.5002 3.09615 15.7998 4.18704 16.8761C5.41903 18.0904 6.91051 18.7627 8.44483 19.553C8.68921 19.681 8.94871 19.819 9.08979 20.0523C9.2082 20.2455 9.23088 20.4788 9.24851 20.7021C9.39212 22.3805 9.54076 24.0589 9.68941 25.7374C9.75743 26.5302 9.88844 27.3631 10.3898 28.0179C10.997 28.8132 12.0299 29.1268 12.9823 29.3326C15.1414 29.7967 17.3106 29.9598 19.4168 29.8996C21.3391 29.8444 23.5133 29.601 25.4331 28.8659C25.9773 28.6552 26.4963 28.3591 26.912 27.9552C27.7988 27.0921 27.6099 25.9732 27.6225 24.8542C27.6326 24.0439 27.6779 23.2285 27.6527 22.4206C27.6275 21.6454 27.6653 20.8225 28.081 20.1376C28.6932 19.129 29.958 18.6724 30.8826 17.9875C31.8828 17.2474 32.7872 16.3768 33.5128 15.3758C34.4803 14.0461 35.1278 12.4755 35.2563 10.8473C35.3671 9.43228 35.0572 7.97714 34.3719 6.72773ZM33.8152 11.7756C33.7698 12.0064 33.7093 12.2322 33.6388 12.4555C33.1903 13.8805 32.2783 15.1525 31.1975 16.2137C29.895 17.4882 28.2775 18.5194 26.461 18.8229C25.8992 18.9183 25.3248 18.9409 24.7554 18.9133C24.2087 18.8857 23.4756 18.7728 23.0397 18.7226C23.1858 18.8154 23.3067 18.8907 23.4226 18.9584C23.7124 19.124 24.0323 19.2971 24.5035 19.5003C24.8234 19.6383 25.0124 19.7261 25.3475 19.839C25.607 19.9293 25.6775 20.1075 25.8035 20.3508C26.1814 21.0784 26.388 21.8838 26.4711 22.6941C26.5215 23.1758 26.5265 23.6625 26.5064 24.1442C26.4963 24.4252 26.4913 24.7037 26.4661 24.9847C26.4535 25.1352 26.4736 25.6997 26.2293 25.5341C24.904 24.6259 23.2261 24.1543 21.6238 24.36C21.2585 24.4077 20.999 24.4553 20.548 24.6059C20.7647 24.6435 20.9939 24.6937 21.1728 24.7213C21.4147 24.7564 21.6389 24.8016 21.8908 24.8668C22.3595 24.9872 22.8004 25.2055 23.2186 25.4438C23.8257 25.79 24.3775 26.2191 24.8789 26.6983C25.0477 26.8588 25.5465 27.1599 25.3072 27.4133C25.161 27.5688 24.6571 27.609 24.4531 27.6541C24.1306 27.7219 23.8056 27.772 23.4781 27.8147C22.0445 27.9978 20.5178 28.0681 19.0716 28.0756C17.8749 28.0831 16.7412 28.0405 15.5445 27.9853C14.441 27.9326 13.1511 27.9577 12.239 27.2552C11.5941 26.7585 11.2615 25.9657 11.065 25.1829C10.7702 24.0338 10.7123 22.8246 10.9012 21.6554C10.9491 21.3594 11.0121 21.0659 11.0927 20.7773C11.1557 20.544 11.2162 20.115 11.3774 19.9268C11.4832 19.8039 11.6873 19.8215 11.8359 19.8014C12.0375 19.7713 12.2365 19.7387 12.4356 19.696C12.821 19.6183 13.2014 19.5179 13.5743 19.395C14.3175 19.1491 15.033 18.8129 15.6831 18.3814C16.5573 17.8043 17.3081 17.0693 18.0689 16.3592C18.4519 16.0005 18.8399 15.6442 19.253 15.3156C19.6561 14.9919 20.1021 14.7486 20.5329 14.4425C20.3691 14.4901 20.1021 14.5629 19.9585 14.6131C19.6284 14.731 19.3059 14.8589 18.991 15.007C18.2377 15.3607 16.5346 16.4922 15.421 17.0241C14.3075 17.5585 12.8764 18.0653 11.0096 17.9047C9.53321 17.7793 8.15258 17.5585 6.83493 16.866C5.65081 16.2413 4.65061 15.2804 3.99053 14.1339C3.74111 13.6973 3.53956 13.2357 3.39595 12.754C2.77618 10.6691 3.2725 8.29326 4.70352 6.6349C5.60043 5.59372 6.85257 4.85863 8.20296 4.53498C8.88068 4.37442 9.59367 4.30668 10.289 4.37191C10.5107 4.39449 10.5762 4.36438 10.5007 4.55255C10.4503 4.67799 10.3016 4.80845 10.226 4.92637C10.0497 5.19481 9.90104 5.47832 9.77003 5.76934C9.35433 6.69762 9.10491 7.68109 9.01673 8.73983C8.90588 10.0495 9.10491 11.1182 9.42487 11.9738C9.60627 12.4555 9.8053 12.7766 10.1454 13.2056C9.82294 12.2046 9.77759 10.348 10.2739 8.90793C10.7828 7.43523 11.8863 6.20338 13.1662 5.28262C15.7863 3.40349 19.4244 2.97447 22.425 4.18876C24.1936 4.9063 25.748 6.17829 26.6475 7.83163C27.5469 9.48497 27.6174 11.6125 27.0581 13.2633C27.4386 12.7967 27.7031 12.3626 27.9147 11.8609C28.1339 11.3365 28.2876 10.7871 28.3783 10.2276C28.5295 9.31687 28.5345 8.38859 28.4438 7.47035C28.3733 6.75783 28.2221 5.99263 27.8895 5.34785C29.4238 5.17725 31.4041 5.91235 32.4849 6.95854C33.7446 8.17785 34.1603 10.0771 33.8152 11.7756Z" stroke="#00FFD7" stroke-width="0.5" stroke-miterlimit="10" stroke-linecap="round"/>
<path d="M34.3719 6.72773C34.0041 6.05535 33.5254 5.44319 32.946 4.92637C32.0138 4.09593 30.8221 3.54398 29.5775 3.34829C28.9653 3.25296 28.338 3.24292 27.7258 3.33073C27.4537 3.36836 27.1337 3.52893 26.8742 3.54148C26.5417 3.55904 26.2141 3.29561 25.9546 3.11999C23.9215 1.75015 21.455 1 18.986 1C16.5145 1.00251 14.0505 1.75266 12.0173 3.125C11.7251 3.3232 11.4026 3.67695 11.0801 3.80741C10.6392 3.98303 10.0018 3.64183 9.56344 3.55151C8.08959 3.24794 6.62078 3.28055 5.20488 3.82749C3.3884 4.52997 1.8818 6.02274 1.2973 7.84668C0.748068 9.5502 1.01008 11.4243 1.67269 13.0877C2.23703 14.5002 3.09615 15.7998 4.18704 16.8761C5.41903 18.0904 6.91051 18.7627 8.44483 19.553C8.68921 19.681 8.94871 19.819 9.08979 20.0523C9.2082 20.2455 9.23088 20.4788 9.24851 20.7021C9.39212 22.3805 9.54076 24.0589 9.68941 25.7374C9.75743 26.5302 9.88844 27.3631 10.3898 28.0179C10.997 28.8132 12.0299 29.1268 12.9823 29.3326C15.1414 29.7967 17.3106 29.9598 19.4168 29.8996C21.3391 29.8444 23.5133 29.601 25.4331 28.8659C25.9773 28.6552 26.4963 28.3591 26.912 27.9552C27.7988 27.0921 27.6099 25.9732 27.6225 24.8542C27.6326 24.0439 27.6779 23.2285 27.6527 22.4206C27.6275 21.6454 27.6653 20.8225 28.081 20.1376C28.6932 19.129 29.958 18.6724 30.8826 17.9875C31.8828 17.2474 32.7872 16.3768 33.5128 15.3758C34.4803 14.0461 35.1278 12.4755 35.2563 10.8473C35.3671 9.43228 35.0572 7.97714 34.3719 6.72773ZM33.8152 11.7756C33.7698 12.0064 33.7093 12.2322 33.6388 12.4555C33.1903 13.8805 32.2783 15.1525 31.1975 16.2137C29.895 17.4882 28.2775 18.5194 26.461 18.8229C25.8992 18.9183 25.3248 18.9409 24.7554 18.9133C24.2087 18.8857 23.4755 18.7728 23.0397 18.7226C23.1858 18.8154 23.3067 18.8907 23.4226 18.9584C23.7124 19.124 24.0323 19.2971 24.5035 19.5003C24.8234 19.6383 25.0124 19.7261 25.3475 19.839C25.607 19.9293 25.6775 20.1075 25.8035 20.3508C26.1814 21.0784 26.388 21.8838 26.4711 22.6941C26.5215 23.1758 26.5265 23.6625 26.5064 24.1442C26.4963 24.4252 26.4913 24.7037 26.4661 24.9847C26.4535 25.1352 26.4736 25.6997 26.2292 25.5341C24.904 24.6259 23.2261 24.1543 21.6238 24.36C21.2585 24.4077 20.999 24.4553 20.548 24.6059C20.7647 24.6435 20.9939 24.6937 21.1728 24.7213C21.4147 24.7564 21.6389 24.8016 21.8908 24.8668C22.3595 24.9872 22.8004 25.2055 23.2186 25.4438C23.8257 25.79 24.3775 26.2191 24.8789 26.6983C25.0477 26.8588 25.5465 27.1599 25.3072 27.4133C25.161 27.5688 24.6571 27.609 24.4531 27.6541C24.1306 27.7219 23.8056 27.772 23.4781 27.8147C22.0445 27.9978 20.5178 28.0681 19.0716 28.0756C17.8749 28.0831 16.7412 28.0405 15.5445 27.9853C14.441 27.9326 13.1511 27.9577 12.239 27.2552C11.5941 26.7585 11.2615 25.9657 11.065 25.1829C10.7702 24.0338 10.7123 22.8246 10.9012 21.6554C10.9491 21.3594 11.0121 21.0659 11.0927 20.7773C11.1557 20.544 11.2162 20.115 11.3774 19.9268C11.4832 19.8039 11.6873 19.8215 11.8359 19.8014C12.0375 19.7713 12.2365 19.7387 12.4356 19.696C12.821 19.6183 13.2014 19.5179 13.5743 19.395C14.3175 19.1491 15.033 18.8129 15.6831 18.3814C16.5573 17.8043 17.3081 17.0693 18.0689 16.3592C18.4519 16.0005 18.8399 15.6442 19.253 15.3156C19.6561 14.9919 20.1021 14.7486 20.5329 14.4425C20.3691 14.4901 20.1021 14.5629 19.9585 14.6131C19.6284 14.731 19.3059 14.8589 18.991 15.007C18.2377 15.3607 16.5346 16.4922 15.421 17.0241C14.3075 17.5585 12.8764 18.0653 11.0096 17.9047C9.53321 17.7793 8.15258 17.5585 6.83493 16.866C5.65081 16.2413 4.65061 15.2804 3.99053 14.1339C3.74111 13.6973 3.53956 13.2357 3.39595 12.754C2.77618 10.6691 3.2725 8.29326 4.70352 6.6349C5.60043 5.59372 6.85257 4.85863 8.20296 4.53498C8.88068 4.37442 9.59367 4.30668 10.289 4.37191C10.5107 4.39449 10.5762 4.36438 10.5007 4.55255C10.4503 4.67799 10.3016 4.80845 10.226 4.92637C10.0497 5.19481 9.90104 5.47832 9.77003 5.76934C9.35433 6.69762 9.10491 7.6811 9.01673 8.73983C8.90588 10.0495 9.10491 11.1182 9.42487 11.9738C9.60627 12.4555 9.8053 12.7766 10.1454 13.2056C9.82294 12.2046 9.77759 10.348 10.2739 8.90793C10.7828 7.43523 11.8863 6.20338 13.1662 5.28262C15.7863 3.40349 19.4244 2.97447 22.425 4.18876C24.1936 4.9063 25.748 6.17829 26.6475 7.83163C27.5469 9.48497 27.6174 11.6125 27.0581 13.2633C27.4386 12.7967 27.7031 12.3626 27.9147 11.8609C28.1339 11.3365 28.2876 10.7871 28.3783 10.2276C28.5295 9.31687 28.5345 8.38859 28.4438 7.47035C28.3733 6.75783 28.2221 5.99263 27.8895 5.34785C29.4238 5.17725 31.4041 5.91235 32.4849 6.95854C33.7446 8.17785 34.1603 10.0771 33.8152 11.7756Z" fill="#00FFD7"/>
</svg>
