<?xml version="1.0" encoding="UTF-8"?>
<svg xmlns:xodm="http://www.corel.com/coreldraw/odm/2003" xmlns="http://www.w3.org/2000/svg" xmlns:xlink="http://www.w3.org/1999/xlink" version="1.1" id="Layer_1" x="0px" y="0px" viewBox="0 0 2500 439" style="enable-background:new 0 0 2500 439;" xml:space="preserve">
<style type="text/css">
	.st0{fill:#ffffff;}
</style>
<g id="Layer_x0020_1">
	<g id="_2085448168176">
		<path class="st0" d="M73.2,67.7L190.2,0l117,67.7l-43.9,23.8l-73.1-42.1l-75,42.1L73.2,67.7L73.2,67.7z M305.4,151.8l-42.1-23.8    l-73.1,42.1l-75-42.1l-42.1,23.8v49.4l73.2,42.1v86l42.1,25.6l42.1-25.6v-84.1l73.2-42.1v-51.2H305.4z M305.4,287.2v-49.4    l-42.1,25.6v47.5L305.4,287.2z M336.5,303.6l-73.1,42.1v49.4l117.1-67.7V192.1l-43.9,27.4L336.5,303.6L336.5,303.6z M294.4,109.8    l42.1,25.6v49.4l42.1-25.6v-49.4l-42.1-25.6L294.4,109.8z M146.3,364v49.4l42.1,25.6l42.1-25.6V364l-42.1,25.6L146.3,364z     M73.1,287.2l42.1,23.8v-49.4L73.1,236V287.2z M146.3,109.8l42.1,25.6l43.9-25.6l-42.1-25.6C190.2,84.2,146.3,109.8,146.3,109.8z     M42.1,135.4L86,109.8L42.1,84.2L0,109.8v49.4l42.1,25.6V135.4z M42.1,219.5L0,193.9v135.3l117.1,67.7v-49.4l-73.2-42.1v-86    L42.1,219.5L42.1,219.5z"></path>
		<path class="st0" d="M716.9,276.2L716.9,276.2c0-32.9-18.3-49.4-45.7-60.4c18.3-9.1,32.9-25.6,32.9-53l0,0c0-38.4-31.1-64-80.5-64    H510.2v245.1h117C680.3,342,716.9,320.1,716.9,276.2L716.9,276.2z M649.2,171.9c0,18.3-14.6,25.6-38.4,25.6h-49.4v-53h53    C638.3,144.5,649.2,153.7,649.2,171.9L649.2,171.9L649.2,171.9z M663.9,268.9c0,18.3-14.6,27.4-38.4,27.4h-64v-53h62.2    C651.1,241.4,663.9,252.4,663.9,268.9L663.9,268.9L663.9,268.9z"></path>
		<polygon class="st0" points="982.1,342 982.1,98.8 929,98.8 929,248.8 813.8,98.8 764.5,98.8 764.5,343.9 817.5,343.9     817.5,188.4 936.4,343.9 982.1,343.9   "></polygon>
		<path class="st0" d="M1250.9,276.2L1250.9,276.2c0-32.9-18.3-49.4-45.7-60.4c18.3-9.1,32.9-25.6,32.9-53l0,0    c0-38.4-31.1-64-80.5-64h-113.4v245.1h117C1214.3,342,1250.9,320.1,1250.9,276.2L1250.9,276.2z M1185.1,171.9    c0,18.3-14.6,25.6-38.4,25.6h-49.4v-53h53C1172.3,144.5,1185.1,153.7,1185.1,171.9L1185.1,171.9z M1197.9,268.9    c0,18.3-14.6,27.4-38.4,27.4h-64v-53h62.2C1185.1,241.4,1197.9,252.4,1197.9,268.9L1197.9,268.9L1197.9,268.9z"></path>
		<path class="st0" d="M1574.6,300l-27.4-27.4c-20.1,20.1-40.2,31.1-69.5,31.1c-47.6,0-80.5-38.4-80.5-87.8    c0-47.6,34.8-85.9,80.5-85.9c27.4,0,49.4,12.8,67.7,31.1l27.4-32.9c-23.8-21.9-51.2-38.4-95.1-38.4    c-73.2,0-126.2,56.7-126.2,126.2c0,71.3,53,126.2,124.4,126.2C1521.6,342,1549,325.6,1574.6,300z"></path>
		<polygon class="st0" points="1783.1,236 1783.1,338.4 1825.2,338.4 1825.2,93.3 1783.1,93.3 1783.1,195.7 1666.1,195.7     1666.1,93.3 1624,93.3 1624,338.4 1666.1,338.4 1666.1,236   "></polygon>
		<path class="st0" d="M2019,93.3h-40.2l-107.9,246.9h43.9l25.6-58.5h115.2l25.6,58.5h45.7L2019,93.3L2019,93.3z M2041,241.4h-84.1    l42.1-96.9L2041,241.4L2041,241.4z"></path>
		<polygon class="st0" points="2174.5,93.3 2174.5,338.4 2216.5,338.4 2216.5,93.3   "></polygon>
		<polygon class="st0" points="2456.1,263.4 2324.4,95.1 2286,95.1 2286,340.2 2328.1,340.2 2328.1,164.6 2463.4,338.4 2500,338.4     2500,93.3 2457.9,93.3 2457.9,263.4   "></polygon>
	</g>
</g>
</svg>
