<svg width="171" height="32" viewBox="0 0 171 32" fill="none" xmlns="http://www.w3.org/2000/svg">
<path d="M16.8116 0C12.214 0 0.890625 11.3792 0.890625 15.9999C0.890625 20.6206 12.214 32 16.8116 32C21.4093 32 32.7328 20.6204 32.7328 15.9999C32.7328 11.3794 21.4094 0 16.8116 0ZM14.3306 25.1492C12.3918 24.6183 7.17926 15.455 7.70766 13.5066C8.23606 11.5581 17.354 6.31979 19.2927 6.8508C21.2316 7.38173 26.4442 16.5449 25.9158 18.4934C25.3874 20.4418 16.2694 25.6802 14.3306 25.1492Z" fill="white"/>
<path d="M54.988 19.5465V19.5407L45.9416 2.77265C45.7636 2.44259 45.2714 2.52164 45.2046 2.89103L40.6994 27.7944C40.6552 28.0384 40.8418 28.2631 41.0886 28.2631H44.5743C44.7655 28.2631 44.9294 28.1256 44.9635 27.9365L47.5872 13.4058L54.6392 26.9167C54.7874 27.2006 55.1917 27.2006 55.3399 26.9167L62.3919 13.4058L65.0156 27.9365C65.0497 28.1256 65.2136 28.2631 65.4048 28.2631H68.8905C69.1374 28.2631 69.3239 28.0384 69.2798 27.7944L64.7745 2.89103C64.7077 2.52164 64.2156 2.44259 64.0375 2.77265L54.988 19.5465Z" fill="white"/>
<path d="M83.9358 3.2416C76.76 3.2416 71.1388 8.84552 71.1388 16.0009C71.1388 23.1563 76.76 28.7633 83.9358 28.7633C91.0931 28.7633 96.7003 23.1578 96.7003 16.0009C96.7003 8.84396 91.0931 3.2416 83.9358 3.2416ZM83.9358 24.491C79.2564 24.491 75.5901 20.7613 75.5901 16.0009C75.5901 11.2405 79.2564 7.51392 83.9358 7.51392C88.5967 7.51392 92.249 11.2421 92.249 16.0009C92.249 20.7597 88.5966 24.491 83.9358 24.491Z" fill="white"/>
<path d="M116.425 18.9277L101.419 2.6968C101.175 2.43211 100.734 2.60612 100.734 2.96742V27.8653C100.734 28.0849 100.911 28.2629 101.13 28.2629H104.757C104.976 28.2629 105.153 28.0849 105.153 27.8653V13.0463L120.125 29.3078C120.369 29.5733 120.811 29.3995 120.811 29.0378V4.13983C120.811 3.92025 120.634 3.74224 120.415 3.74224H116.82C116.602 3.74224 116.425 3.92025 116.425 4.13983V18.9277Z" fill="white"/>
<path d="M124.658 28.2634H128.553C128.707 28.2634 128.848 28.1732 128.912 28.0325L131.83 21.6818H141.161L144.013 28.0294C144.077 28.1718 144.218 28.2634 144.374 28.2634H148.6C148.892 28.2634 149.083 27.9568 148.956 27.6928L136.985 2.79643C136.841 2.49696 136.417 2.49696 136.273 2.79643L124.302 27.6928C124.175 27.9568 124.366 28.2634 124.658 28.2634ZM133.659 17.7416L136.559 11.4173L139.405 17.7416H133.659Z" fill="white"/>
<path d="M158.41 3.74254H152.424C152.206 3.74254 152.029 3.92054 152.029 4.14012V27.8656C152.029 28.0852 152.206 28.2632 152.424 28.2632H158.41C165.831 28.2632 170.442 23.5652 170.442 16.0013C170.442 8.43743 165.831 3.74254 158.41 3.74254ZM158.41 24.0564H156.48V7.91663H158.41C163.228 7.91663 165.991 10.8636 165.991 16.0013C165.991 21.1203 163.228 24.0564 158.41 24.0564Z" fill="white"/>
</svg>
