<svg version="1.1" id="Layer_1" xmlns:x="ns_extend;" xmlns:i="ns_ai;" xmlns:graph="ns_graphs;" xmlns="http://www.w3.org/2000/svg" xmlns:xlink="http://www.w3.org/1999/xlink" x="0px" y="0px" viewBox="0 0 580 125.4" style="enable-background:new 0 0 580 125.4;" xml:space="preserve">
 <style type="text/css">
  .st0{fill:#FFFFFF;}
 </style>
 <metadata>
  <sfw xmlns="ns_sfw;">
   <slices>
   </slices>
   <sliceSourceBounds bottomLeftOrigin="true" height="125.4" width="580" x="19.5" y="13.1">
   </sliceSourceBounds>
  </sfw>
 </metadata>
 <g>
  <g>
   <path class="st0" d="M184.6,117.3v-79h11.8l1.1,6.4h0.6c3.4-4.4,9.1-7.5,17-7.5c14.6,0,26.2,11.9,26.2,29.4S229.6,96,215.1,96
			c-7.8,0-13.3-3.2-16.2-6.9h-0.6v28.2L184.6,117.3L184.6,117.3z M227.6,66.6c0-10.3-6.6-16.8-14.7-16.8s-14.7,6.5-14.7,16.8
			s6.6,16.8,14.7,16.8S227.6,76.9,227.6,66.6z">
   </path>
   <path class="st0" d="M248.2,66.6c0-17.1,12.3-29.4,28.8-29.4s28.8,12.3,28.8,29.4S293.4,96,277,96S248.2,83.6,248.2,66.6z
			 M292,66.6c0-10.1-6.7-16.8-15-16.8s-15.1,6.7-15.1,16.8s6.8,16.7,15.1,16.7S292,76.7,292,66.6z">
   </path>
   <path class="st0" d="M315.6,94.9V16.6h13.7v78.4L315.6,94.9L315.6,94.9z">
   </path>
   <path class="st0" d="M380,38.3h14.5l-24.6,68.8c-2.5,6.8-5.8,10.2-14.7,10.2H342v-12.7h11.2c2,0,3.1-1,3.8-2.7l1.3-3.7l-23.1-60
			h14.5l14.7,39.3h2.2L380,38.3L380,38.3z">
   </path>
   <path class="st0" d="M397.2,97.7h13.9c0.6,3.7,4.2,8.7,13,8.7c8.2,0,13.5-5.2,13.5-13v-7.9H437c-3,3.2-8.6,6.2-15.8,6.2
			c-14.5,0-25.8-11.2-25.8-27.3s11.2-27.2,25.8-27.2c7.5,0,13,3,16.5,7.3h0.6l1.1-6.2h11.9v55.2c0,15-10.1,25-27.2,25
			C404.9,118.4,397.5,105.9,397.2,97.7L397.2,97.7z M437.6,64.4c0-8.8-6.3-15-14.2-15s-14.1,6.2-14.1,15s6.3,15.1,14.1,15.1
			S437.6,73.3,437.6,64.4z">
   </path>
   <path class="st0" d="M460.7,66.6c0-17.1,12.3-29.4,28.8-29.4c16.5,0,28.8,12.3,28.8,29.4S506,96,489.5,96S460.7,83.6,460.7,66.6
			L460.7,66.6z M504.5,66.6c0-10.1-6.7-16.8-15-16.8s-15.1,6.7-15.1,16.8s6.8,16.7,15.1,16.7C497.8,83.3,504.5,76.7,504.5,66.6z">
   </path>
   <path class="st0" d="M527.8,94.9V38.3h11.8l1.1,5.4h0.6c2.2-2.6,7.8-6.5,16.3-6.5c13,0,22.4,9.4,22.4,23.7v34h-13.7V62.7
			c0-7.3-5.2-12.5-12.2-12.5s-12.7,5.5-12.7,12.5v32.2L527.8,94.9L527.8,94.9z">
   </path>
  </g>
  <path class="st0" d="M105.1,88.3l33.6-19.4c1.8-1,2.9-2.9,2.9-5V25.1c0-2-1.1-4-2.9-5L105.1,0.8c-1.8-1-4-1-5.8,0L65.8,20.2
		c-1.8,1-2.9,2.9-2.9,5v69.3L39.3,108L15.8,94.4V67.3l23.5-13.6l15.5,9V44.4l-12.7-7.3c-0.9-0.5-1.9-0.8-2.9-0.8s-2,0.3-2.9,0.8
		L2.9,56.5c-1.8,1-2.9,2.9-2.9,5v38.8c0,2.1,1.1,4,2.9,5l33.6,19.4c1.8,1,4,1,5.8,0l33.6-19.4c1.8-1,2.9-2.9,2.9-5V30.9l0.4-0.2
		l23.1-13.4l23.6,13.6v27.2l-23.6,13.6l-15.5-8.9V81l12.6,7.3C101.1,89.3,103.3,89.3,105.1,88.3L105.1,88.3z">
  </path>
 </g>
</svg>